<svg viewBox="200 200 624 624" xmlns="http://www.w3.org/2000/svg">
    <!-- Medical Cross - Top Left -->
    <path
        fill="#3b82f6"
        d="M378.63,251.25c.62-2.22,18-11.11,21.3-12.67,28.65-13.5,60.98-22.16,92.59-24.8l.04,139.41c-4.38,65.59-58.58,123.69-125.37,126.38l-143.77-.19-1.22-1.89c3.69-38.6,15.83-75.64,33.55-109.85h122.88v-116.39Z"
    />
    <!-- Medical Cross - Bottom Left -->
    <path
        fill="#3b82f6"
        d="M256.25,634.38c-20.04-34.07-30.11-73.64-34.46-112.88l151.22.12c64.93,7.51,115.46,64.61,119.55,129.2l-.04,135.41c-40.24-2.53-79.65-15.49-113.89-36.47v-115.39h-122.38Z"
    />
    <!-- Medical Cross - Top Right -->
    <path
        fill="#3b82f6"
        d="M804.21,521.49c-3.31,33.28-11.45,67.37-25.8,97.58-2.45,5.15-4.96,11.09-8.67,15.31h-121.38v116.89c-1-.08-1.98.1-2.86.59-25.46,14.04-53.12,25.53-81.85,31.09-9.65,1.87-19.50,2.63-29.17,4.29l-.05-141.4c4.15-52.86,42.74-101.26,92.74-118.05,5.37-1.8,20.76-6.28,25.69-6.28h151.35Z"
    />
    <!-- Medical Cross - Bottom Right -->
    <path
        fill="#3b82f6"
        d="M648.37,367.64h121.38c19.49,34.11,30.48,72.81,34.47,111.89l-144.4.05c-65.9-4.12-120.58-59.81-125.38-125.38l.04-140.41c40.01,3.55,79.6,15.67,113.89,36.47v117.39Z"
    />
</svg> 